HIERARCHY
ROOT Hips
{
 OFFSET 0.000000 0.000000 0.000000
 CHANNELS 6 Xposition Yposition Zposition Yrotation Xrotation Zrotation
 JOINT Chest
 {
  OFFSET 0.000000 9.585900 0.002600
  CHANNELS 3 Yrotation Xrotation Zrotation
  JOINT Chest2
  {
   OFFSET 0.000000 9.601200 -0.005300
   CHANNELS 3 Yrotation Xrotation Zrotation
   JOINT Chest3
   {
    OFFSET 0.000000 9.561800 0.000000
    CHANNELS 3 Yrotation Xrotation Zrotation
    JOINT Chest4
    {
     OFFSET 0.000000 9.552100 0.000000
     CHANNELS 3 Yrotation Xrotation Zrotation
     JOINT Neck
     {
      OFFSET 0.000000 14.453000 0.000000
      CHANNELS 3 Yrotation Xrotation Zrotation
      JOINT Head
      {
       OFFSET 0.000000 8.936500 -0.011300
       CHANNELS 3 Yrotation Xrotation Zrotation
       End Site
       {
        OFFSET 0.000000 17.073600 -0.006000
       }
      }
     }
     JOINT RightCollar
     {
      OFFSET -2.921100 9.558500 0.000000
      CHANNELS 3 Yrotation Xrotation Zrotation
      JOINT RightShoulder
      {
       OFFSET -13.519700 0.000000 0.000000
       CHANNELS 3 Yrotation Xrotation Zrotation
       JOINT RightElbow
       {
        OFFSET 0.000000 -29.696600 0.000000
        CHANNELS 3 Yrotation Xrotation Zrotation
        JOINT RightWrist
        {
         OFFSET 0.000000 -24.004700 0.000000
         CHANNELS 3 Yrotation Xrotation Zrotation
         End Site
         {
          OFFSET 0.000000 -17.728500 0.000000
         }
        }
       }
      }
     }
     JOINT LeftCollar
     {
      OFFSET 2.921100 9.558500 0.000000
      CHANNELS 3 Yrotation Xrotation Zrotation
      JOINT LeftShoulder
      {
       OFFSET 13.519700 0.000000 0.000000
       CHANNELS 3 Yrotation Xrotation Zrotation
       JOINT LeftElbow
       {
        OFFSET 0.000000 -29.696600 0.000000
        CHANNELS 3 Yrotation Xrotation Zrotation
        JOINT LeftWrist
        {
         OFFSET 0.000000 -24.004700 0.000000
         CHANNELS 3 Yrotation Xrotation Zrotation
         End Site
         {
          OFFSET 0.000000 -17.728500 0.000000
         }
        }
       }
      }
     }
    }
   }
  }
 }
 JOINT RightHip
 {
  OFFSET -7.771700 -0.012900 -0.001300
  CHANNELS 3 Yrotation Xrotation Zrotation
  JOINT RightKnee
  {
   OFFSET 0.000000 -40.869800 0.001200
   CHANNELS 3 Yrotation Xrotation Zrotation
   JOINT RightAnkle
   {
    OFFSET 0.000000 -39.717900 0.002100
    CHANNELS 3 Yrotation Xrotation Zrotation
    JOINT RightToe
    {
     OFFSET 0.000000 -4.965400 11.033500
     CHANNELS 3 Yrotation Xrotation Zrotation
     End Site
     {
      OFFSET 0.000000 -1.423100 5.872300
     }
    }
   }
  }
 }
 JOINT LeftHip
 {
  OFFSET 7.771700 -0.012900 -0.001300
  CHANNELS 3 Yrotation Xrotation Zrotation
  JOINT LeftKnee
  {
   OFFSET 0.000000 -40.869800 0.001200
   CHANNELS 3 Yrotation Xrotation Zrotation
   JOINT LeftAnkle
   {
    OFFSET 0.000000 -39.717900 0.002100
    CHANNELS 3 Yrotation Xrotation Zrotation
    JOINT LeftToe
    {
     OFFSET 0.000000 -4.965400 11.033500
     CHANNELS 3 Yrotation Xrotation Zrotation
     End Site
     {
      OFFSET 0.000000 -1.423100 5.872300
     }
    }
   }
  }
 }
}
MOTION
Frames: 12
Frame Time: 0.008333
0.000000 85.388000 0.000000 0.000000 -5.767877 0.000000 0.000000 11.653817 0.000000 0.000000 -5.885947 0.000000 0.000000 -0.000000 0.000000 0.000000 -0.000000 0.000000 0.000000 12.528835 0.000000 0.000000 0.711642 0.000000 0.000000 -0.000000 0.000000 0.000000 0.000000 -90.000000 0.000000 -2.309062 0.000000 0.000000 2.309062 0.000000 0.000000 -0.000000 0.000000 0.000000 -0.000000 90.000000 0.000000 -2.309062 0.000000 0.000000 2.309062 0.000000 0.000000 8.520406 0.000000 0.000000 1.905762 0.000000 -0.000000 -4.658285 0.000000 0.000000 -0.000000 0.000000 0.000000 8.520406 0.000000 0.000000 1.905762 0.000000 -0.000000 -4.658285 0.000000 0.000000 -0.000000 0.000000
-82.462362 55.638842 -43.488851 -171.754690 -14.147068 -1.169249 -1.364599 14.954303 0.953158 -0.123143 1.380656 0.113605 -0.220620 2.309065 0.199616 -1.156111 13.381666 1.027449 -0.547883 13.169369 1.587346 -0.907797 -11.800773 1.734307 0.822362 -2.198387 1.112116 11.257589 -6.013423 -13.921947 -68.785929 -58.691562 111.573258 -7.945414 11.795564 9.415355 -7.051278 -2.125566 1.874021 2.580005 -13.120572 5.638611 42.688661 -54.787026 -83.873777 6.388055 0.896427 -0.633069 -4.242322 -61.184487 8.111022 -37.711195 85.458368 -43.241706 -10.177307 -17.904681 14.295330 0.038425 -0.113740 0.042986 10.325681 -57.884376 -13.011857 90.025162 70.778815 91.362035 0.815493 -19.214343 -2.679046 0.034732 0.188853 0.010310
-82.463004 55.639721 -43.489213 -171.751638 -14.152482 -1.173805 -1.359345 14.966034 0.953609 -0.115864 1.390903 0.110239 -0.218784 2.313777 0.198873 -1.156735 13.378253 1.031354 -0.554447 13.203645 1.574225 -0.918931 -11.817577 1.748419 0.811694 -2.218171 1.099295 11.251613 -6.013799 -13.899242 -68.674972 -58.693594 111.488490 -7.935682 11.760829 9.412660 -7.082266 -2.165903 1.862050 2.595039 -13.098330 5.673721 42.687088 -54.775755 -83.873320 6.409743 0.836698 -0.625308 -4.242256 -61.175863 8.112524 -37.706615 85.456445 -43.243613 -10.152117 -17.908105 14.296994 0.038769 -0.110661 0.039243 10.320013 -57.881101 -13.006050 90.031057 70.777656 91.368105 0.815246 -19.211535 -2.675098 0.035157 0.184896 0.009220
-82.465157 55.640774 -43.489408 -171.752536 -14.158568 -1.170905 -1.345741 14.985077 0.947588 -0.114669 1.395562 0.107178 -0.228339 2.301376 0.206964 -1.148058 13.391048 1.027351 -0.560833 13.278244 1.546498 -0.951120 -11.791424 1.755594 0.801797 -2.243342 1.089019 11.249922 -6.009326 -13.879284 -68.623508 -58.696123 111.445985 -7.938498 11.759231 9.404499 -7.104193 -2.196985 1.858208 2.609806 -13.084578 5.687313 42.675181 -54.772852 -83.861343 6.413773 0.816595 -0.630433 -4.227566 -61.170726 8.104186 -37.766338 85.452170 -43.297957 -10.184999 -17.903770 14.299645 0.033394 -0.106898 0.037260 10.327516 -57.875142 -13.010296 90.038598 70.780303 91.374720 0.813552 -19.209421 -2.671324 0.036773 0.180618 0.010281
-82.467916 55.642198 -43.490104 -171.757478 -14.168534 -1.166632 -1.315869 15.025035 0.929093 -0.131771 1.374437 0.123550 -0.218599 2.315318 0.201754 -1.106896 13.451507 1.004836 -0.601034 13.263553 1.568315 -0.977899 -11.774699 1.765267 0.748693 -2.354925 1.099045 11.246428 -5.987790 -13.836316 -68.598976 -58.700178 111.425072 -7.938059 11.768436 9.395886 -7.205792 -2.329544 1.844817 2.643584 -13.031700 5.762450 42.649625 -54.762383 -83.822502 6.460814 0.666537 -0.626651 -4.201867 -61.159739 8.091344 -37.829517 85.444206 -43.355271 -10.217353 -17.901338 14.303367 0.083825 -0.096799 0.035350 10.340755 -57.861512 -13.018041 90.029166 70.771309 91.362340 0.813686 -19.207021 -2.668709 0.029057 0.178484 0.011532
-82.469518 55.643654 -43.490151 -171.761109 -14.173714 -1.171645 -1.298606 15.047404 0.923875 -0.136439 1.367256 0.131942 -0.210254 2.331684 0.194835 -1.090064 13.469722 0.999143 -0.620202 13.261228 1.578461 -0.995885 -11.748463 1.766367 0.715559 -2.420734 1.111612 11.254938 -5.967274 -13.818124 -68.577379 -58.703655 111.402787 -7.932712 11.773954 9.393927 -7.267894 -2.408230 1.826606 2.669793 -12.994961 5.814646 42.616139 -54.796388 -83.671153 6.517315 0.512007 -0.729599 -4.206807 -61.151585 8.097511 -37.764752 85.444850 -43.298096 -10.172078 -17.905200 14.297953 0.066463 -0.100953 0.034081 10.341213 -57.853348 -13.010901 90.015480 70.770276 91.351789 0.811389 -19.210152 -2.668068 0.030695 0.182497 0.012468
-82.470998 55.645096 -43.489356 -171.763393 -14.173806 -1.179324 -1.280100 15.064067 0.919886 -0.138161 1.372843 0.133410 -0.207482 2.337948 0.194423 -1.067396 13.485476 0.993671 -0.642704 13.231260 1.603633 -1.007283 -11.710924 1.759118 0.678636 -2.492067 1.128213 11.266985 -5.947288 -13.798211 -68.447390 -58.724813 111.278240 -7.924035 11.713116 9.406683 -7.396170 -2.491854 1.754899 2.742538 -12.951378 5.922619 42.616587 -54.853725 -83.558687 6.557714 0.344826 -0.809708 -4.224800 -61.148657 8.112335 -37.722472 85.444552 -43.265516 -10.109885 -17.907285 14.289921 0.043156 -0.107680 0.031867 10.336779 -57.852492 -12.998592 90.006348 70.771474 91.343263 0.809251 -19.212561 -2.665786 0.033396 0.186142 0.013645
-82.473998 55.646754 -43.488768 -171.769264 -14.176738 -1.179091 -1.257571 15.081566 0.909460 -0.137909 1.378021 0.131963 -0.204544 2.344327 0.193989 -1.045370 13.500446 0.990201 -0.664673 13.246504 1.610875 -1.028865 -11.703434 1.769679 0.639115 -2.567407 1.146116 11.290219 -5.923224 -13.776436 -68.378854 -58.739130 111.193631 -7.924211 11.713542 9.415313 -7.550289 -2.548081 1.674971 2.846864 -12.936149 6.022857 42.635668 -54.948239 -83.422121 6.600766 0.165583 -0.888062 -4.228811 -61.143030 8.125256 -37.737428 85.434807 -43.280845 -10.149858 -17.903730 14.295507 0.032817 -0.101538 0.026896 10.346213 -57.844153 -13.000178 89.984974 70.769287 91.321701 0.807268 -19.215738 -2.661807 0.033366 0.190355 0.013064
-82.477031 55.648614 -43.488577 -171.774653 -14.182368 -1.180226 -1.232402 15.098567 0.901580 -0.138983 1.386013 0.130473 -0.200844 2.350502 0.192998 -1.025529 13.509375 0.987128 -0.685779 13.265089 1.616973 -1.051842 -11.681231 1.773466 0.601374 -2.621232 1.170514 11.299437 -5.909205 -13.761551 -68.309605 -58.760636 111.116100 -7.906225 11.761220 9.418197 -7.699923 -2.567028 1.610271 2.943338 -12.951661 6.117981 42.756536 -55.067919 -83.309572 6.619669 0.020883 -0.973600 -4.232088 -61.134709 8.131563 -37.669803 85.435083 -43.216046 -10.152031 -17.904136 14.295338 0.026703 -0.100953 0.025998 10.345426 -57.832013 -12.991572 89.960166 70.768877 91.292001 0.807052 -19.221206 -2.659116 0.032370 0.197072 0.014186
-82.483855 55.650132 -43.486887 -171.753683 -14.181851 -1.164433 -1.238121 15.105070 0.868937 -0.138785 1.393647 0.132193 -0.174750 2.368382 0.173134 -1.043925 13.492098 1.013933 -0.691864 13.296550 1.605950 -1.067947 -11.684581 1.784904 0.580248 -2.657088 1.180289 11.312333 -5.899802 -13.750814 -68.267288 -58.768426 111.061064 -7.884596 11.798872 9.406850 -7.848957 -2.536111 1.522742 3.064654 -12.997496 6.208712 42.997974 -55.242628 -83.228241 6.555155 0.024752 -1.125391 -4.214917 -61.133420 8.085749 -37.651568 85.434436 -43.199102 -10.160525 -17.889683 14.292746 0.058710 -0.113508 0.032795 10.359706 -57.824753 -13.031280 89.944864 70.770308 91.272745 0.795573 -19.263343 -2.658218 0.045280 0.239542 0.021844
-82.486137 55.651972 -43.487157 -171.745707 -14.190012 -1.173557 -1.225322 15.118104 0.863230 -0.124544 1.401102 0.123495 -0.184252 2.366425 0.179985 -1.019306 13.508199 1.000540 -0.711758 13.311492 1.621397 -1.081477 -11.674269 1.785648 0.500120 -2.757021 1.219145 11.365046 -5.850352 -13.729850 -68.168921 -58.792647 110.933958 -7.871374 11.799390 9.416182 -8.038949 -2.475298 1.466091 3.206272 -13.079324 6.295781 43.380929 -55.470031 -83.195699 6.443717 0.299046 -1.377270 -4.233352 -61.121516 8.094605 -37.647247 85.433106 -43.195087 -10.149382 -17.893818 14.293307 0.065296 -0.114277 0.031516 10.339416 -57.816543 -13.015990 89.939455 70.771066 91.265436 0.796618 -19.264248 -2.656465 0.044520 0.240818 0.022064
-82.488218 55.653576 -43.487419 -171.747593 -14.198482 -1.180188 -1.203868 15.130556 0.855087 -0.118577 1.404079 0.117907 -0.185183 2.368248 0.182951 -0.994755 13.521078 0.984290 -0.730470 13.323542 1.637865 -1.088537 -11.647756 1.775066 0.445931 -2.804822 1.268057 11.381389 -5.900127 -13.722243 -67.971531 -58.799490 110.717664 -7.856356 11.801341 9.427384 -8.238030 -2.381704 1.417210 3.350136 -13.189094 6.391761 43.866030 -55.720998 -83.164425 6.373925 0.827109 -1.733473 -4.243066 -61.108905 8.105245 -37.592704 85.429798 -43.138277 -10.156301 -17.894868 14.292075 0.070113 -0.112216 0.032437 10.332318 -57.806836 -13.004440 89.932649 70.775762 91.254982 0.809118 -19.267613 -2.650916 0.035141 0.243460 0.019269
